<svg xmlns="http://www.w3.org/2000/svg" xmlns:xlink="http://www.w3.org/1999/xlink" width="2000" zoomAndPan="magnify" viewBox="0 0 1500 1499.999933" height="2000" preserveAspectRatio="xMidYMid meet" version="1.0"><defs><clipPath id="a8e1ef04b3"><path d="M 403.539062 0 L 1096.460938 0 C 1103.066406 0 1109.667969 0.160156 1116.261719 0.484375 C 1122.859375 0.808594 1129.441406 1.296875 1136.015625 1.941406 C 1142.585938 2.589844 1149.140625 3.398438 1155.671875 4.367188 C 1162.207031 5.335938 1168.710938 6.464844 1175.1875 7.753906 C 1181.664062 9.042969 1188.105469 10.488281 1194.511719 12.09375 C 1200.917969 13.699219 1207.28125 15.460938 1213.601562 17.375 C 1219.921875 19.292969 1226.191406 21.363281 1232.410156 23.589844 C 1238.628906 25.8125 1244.789062 28.191406 1250.890625 30.71875 C 1256.992188 33.246094 1263.027344 35.921875 1268.996094 38.742188 C 1274.964844 41.566406 1280.863281 44.535156 1286.6875 47.648438 C 1292.511719 50.761719 1298.257812 54.015625 1303.921875 57.410156 C 1309.585938 60.808594 1315.164062 64.339844 1320.65625 68.007812 C 1326.148438 71.675781 1331.542969 75.480469 1336.847656 79.414062 C 1342.152344 83.347656 1347.359375 87.410156 1352.464844 91.597656 C 1357.570312 95.789062 1362.566406 100.101562 1367.460938 104.535156 C 1372.355469 108.972656 1377.136719 113.523438 1381.804688 118.195312 C 1386.476562 122.863281 1391.027344 127.644531 1395.464844 132.539062 C 1399.898438 137.433594 1404.210938 142.429688 1408.402344 147.535156 C 1412.589844 152.640625 1416.652344 157.847656 1420.585938 163.152344 C 1424.519531 168.457031 1428.320312 173.851562 1431.992188 179.34375 C 1435.660156 184.835938 1439.191406 190.414062 1442.585938 196.078125 C 1445.984375 201.742188 1449.238281 207.488281 1452.351562 213.3125 C 1455.464844 219.136719 1458.433594 225.03125 1461.253906 231.003906 C 1464.078125 236.972656 1466.753906 243.007812 1469.28125 249.109375 C 1471.808594 255.210938 1474.183594 261.371094 1476.410156 267.589844 C 1478.636719 273.808594 1480.707031 280.078125 1482.625 286.398438 C 1484.539062 292.71875 1486.300781 299.078125 1487.90625 305.484375 C 1489.511719 311.894531 1490.957031 318.335938 1492.246094 324.8125 C 1493.535156 331.289062 1494.664062 337.792969 1495.632812 344.328125 C 1496.601562 350.859375 1497.410156 357.410156 1498.054688 363.984375 C 1498.703125 370.558594 1499.191406 377.140625 1499.515625 383.738281 C 1499.835938 390.332031 1500 396.933594 1500 403.539062 L 1500 1096.460938 C 1500 1103.066406 1499.835938 1109.667969 1499.515625 1116.261719 C 1499.191406 1122.859375 1498.703125 1129.441406 1498.054688 1136.015625 C 1497.410156 1142.585938 1496.601562 1149.140625 1495.632812 1155.671875 C 1494.664062 1162.207031 1493.535156 1168.710938 1492.246094 1175.1875 C 1490.957031 1181.664062 1489.511719 1188.105469 1487.90625 1194.511719 C 1486.300781 1200.917969 1484.539062 1207.28125 1482.625 1213.601562 C 1480.707031 1219.921875 1478.636719 1226.191406 1476.410156 1232.410156 C 1474.183594 1238.628906 1471.808594 1244.789062 1469.28125 1250.890625 C 1466.753906 1256.992188 1464.078125 1263.027344 1461.253906 1268.996094 C 1458.433594 1274.964844 1455.464844 1280.863281 1452.351562 1286.6875 C 1449.238281 1292.511719 1445.984375 1298.257812 1442.585938 1303.921875 C 1439.191406 1309.585938 1435.660156 1315.164062 1431.992188 1320.65625 C 1428.320312 1326.144531 1424.519531 1331.542969 1420.585938 1336.847656 C 1416.652344 1342.152344 1412.589844 1347.359375 1408.402344 1352.464844 C 1404.210938 1357.570312 1399.898438 1362.566406 1395.464844 1367.460938 C 1391.027344 1372.355469 1386.476562 1377.136719 1381.804688 1381.804688 C 1377.136719 1386.476562 1372.355469 1391.027344 1367.460938 1395.464844 C 1362.566406 1399.898438 1357.570312 1404.210938 1352.464844 1408.402344 C 1347.359375 1412.589844 1342.152344 1416.652344 1336.847656 1420.585938 C 1331.542969 1424.519531 1326.148438 1428.320312 1320.65625 1431.992188 C 1315.164062 1435.660156 1309.585938 1439.191406 1303.921875 1442.585938 C 1298.257812 1445.984375 1292.511719 1449.238281 1286.6875 1452.351562 C 1280.863281 1455.464844 1274.964844 1458.433594 1268.996094 1461.253906 C 1263.027344 1464.078125 1256.992188 1466.753906 1250.890625 1469.28125 C 1244.789062 1471.808594 1238.628906 1474.183594 1232.410156 1476.410156 C 1226.191406 1478.636719 1219.921875 1480.707031 1213.601562 1482.625 C 1207.28125 1484.539062 1200.917969 1486.300781 1194.511719 1487.90625 C 1188.105469 1489.511719 1181.664062 1490.957031 1175.1875 1492.246094 C 1168.710938 1493.535156 1162.207031 1494.664062 1155.671875 1495.632812 C 1149.140625 1496.601562 1142.585938 1497.410156 1136.015625 1498.054688 C 1129.441406 1498.703125 1122.859375 1499.191406 1116.261719 1499.511719 C 1109.667969 1499.835938 1103.066406 1500 1096.460938 1500 L 403.539062 1500 C 396.933594 1500 390.332031 1499.835938 383.738281 1499.511719 C 377.140625 1499.191406 370.558594 1498.703125 363.984375 1498.054688 C 357.410156 1497.410156 350.859375 1496.601562 344.328125 1495.632812 C 337.792969 1494.664062 331.289062 1493.535156 324.8125 1492.246094 C 318.335938 1490.957031 311.894531 1489.511719 305.488281 1487.90625 C 299.078125 1486.300781 292.71875 1484.539062 286.398438 1482.625 C 280.078125 1480.707031 273.808594 1478.636719 267.589844 1476.410156 C 261.371094 1474.183594 255.210938 1471.808594 249.109375 1469.28125 C 243.007812 1466.753906 236.972656 1464.078125 231.003906 1461.253906 C 225.03125 1458.433594 219.136719 1455.464844 213.3125 1452.351562 C 207.488281 1449.238281 201.742188 1445.984375 196.078125 1442.585938 C 190.414062 1439.191406 184.835938 1435.660156 179.34375 1431.992188 C 173.851562 1428.320312 168.457031 1424.519531 163.152344 1420.585938 C 157.847656 1416.652344 152.640625 1412.589844 147.535156 1408.402344 C 142.429688 1404.210938 137.433594 1399.898438 132.539062 1395.464844 C 127.644531 1391.027344 122.863281 1386.476562 118.195312 1381.804688 C 113.523438 1377.136719 108.972656 1372.355469 104.535156 1367.460938 C 100.101562 1362.566406 95.789062 1357.570312 91.597656 1352.464844 C 87.410156 1347.359375 83.347656 1342.152344 79.414062 1336.847656 C 75.480469 1331.542969 71.675781 1326.148438 68.007812 1320.65625 C 64.339844 1315.164062 60.808594 1309.585938 57.410156 1303.921875 C 54.015625 1298.257812 50.761719 1292.511719 47.648438 1286.6875 C 44.535156 1280.863281 41.566406 1274.964844 38.742188 1268.996094 C 35.921875 1263.027344 33.246094 1256.992188 30.71875 1250.890625 C 28.191406 1244.789062 25.8125 1238.628906 23.589844 1232.410156 C 21.363281 1226.191406 19.292969 1219.921875 17.375 1213.601562 C 15.460938 1207.28125 13.699219 1200.917969 12.09375 1194.511719 C 10.488281 1188.105469 9.042969 1181.664062 7.753906 1175.1875 C 6.464844 1168.710938 5.335938 1162.207031 4.367188 1155.671875 C 3.398438 1149.140625 2.589844 1142.585938 1.941406 1136.015625 C 1.296875 1129.441406 0.808594 1122.859375 0.484375 1116.261719 C 0.160156 1109.667969 0 1103.066406 0 1096.460938 L 0 403.539062 C 0 396.933594 0.160156 390.332031 0.484375 383.738281 C 0.808594 377.140625 1.296875 370.558594 1.941406 363.984375 C 2.589844 357.410156 3.398438 350.859375 4.367188 344.328125 C 5.335938 337.792969 6.464844 331.289062 7.753906 324.8125 C 9.042969 318.335938 10.488281 311.894531 12.09375 305.484375 C 13.699219 299.078125 15.460938 292.71875 17.375 286.398438 C 19.292969 280.078125 21.363281 273.808594 23.589844 267.589844 C 25.8125 261.371094 28.191406 255.210938 30.71875 249.109375 C 33.246094 243.007812 35.921875 236.972656 38.742188 231.003906 C 41.566406 225.03125 44.535156 219.136719 47.648438 213.3125 C 50.761719 207.488281 54.015625 201.742188 57.410156 196.078125 C 60.808594 190.414062 64.339844 184.835938 68.007812 179.34375 C 71.675781 173.851562 75.480469 168.457031 79.414062 163.152344 C 83.347656 157.847656 87.410156 152.640625 91.597656 147.535156 C 95.789062 142.429688 100.101562 137.433594 104.535156 132.539062 C 108.972656 127.644531 113.523438 122.863281 118.195312 118.195312 C 122.863281 113.523438 127.644531 108.972656 132.539062 104.535156 C 137.433594 100.101562 142.429688 95.789062 147.535156 91.597656 C 152.640625 87.410156 157.847656 83.347656 163.152344 79.414062 C 168.457031 75.480469 173.851562 71.675781 179.34375 68.007812 C 184.835938 64.339844 190.414062 60.808594 196.078125 57.410156 C 201.742188 54.015625 207.488281 50.761719 213.3125 47.648438 C 219.136719 44.535156 225.03125 41.566406 231.003906 38.742188 C 236.972656 35.921875 243.007812 33.246094 249.109375 30.71875 C 255.210938 28.191406 261.371094 25.8125 267.589844 23.589844 C 273.808594 21.363281 280.078125 19.292969 286.398438 17.375 C 292.71875 15.460938 299.078125 13.699219 305.488281 12.09375 C 311.894531 10.488281 318.335938 9.042969 324.8125 7.753906 C 331.289062 6.464844 337.792969 5.335938 344.328125 4.367188 C 350.859375 3.398438 357.410156 2.589844 363.984375 1.941406 C 370.558594 1.296875 377.140625 0.808594 383.738281 0.484375 C 390.332031 0.160156 396.933594 0 403.539062 0 Z M 403.539062 0 " clip-rule="nonzero"/></clipPath><linearGradient x1="21.351886" gradientTransform="matrix(0, -6.355932, 6.355932, 0, 0.00003335, 1499.999789)" y1="-15.462286" x2="214.648924" gradientUnits="userSpaceOnUse" y2="251.461704" id="6dcba44517"><stop stop-opacity="1" stop-color="rgb(72.8302%, 70.272827%, 94.255066%)" offset="0"/><stop stop-opacity="1" stop-color="rgb(72.669983%, 69.973755%, 94.212341%)" offset="0.00390625"/><stop stop-opacity="1" stop-color="rgb(72.511292%, 69.674683%, 94.171143%)" offset="0.0078125"/><stop stop-opacity="1" stop-color="rgb(72.3526%, 69.37561%, 94.129944%)" offset="0.0117188"/><stop stop-opacity="1" stop-color="rgb(72.193909%, 69.076538%, 94.088745%)" offset="0.015625"/><stop stop-opacity="1" stop-color="rgb(72.033691%, 68.777466%, 94.046021%)" offset="0.0195313"/><stop stop-opacity="1" stop-color="rgb(71.875%, 68.478394%, 94.004822%)" offset="0.0234375"/><stop stop-opacity="1" stop-color="rgb(71.716309%, 68.179321%, 93.962097%)" offset="0.0273438"/><stop stop-opacity="1" stop-color="rgb(71.557617%, 67.880249%, 93.920898%)" offset="0.03125"/><stop stop-opacity="1" stop-color="rgb(71.3974%, 67.579651%, 93.8797%)" offset="0.0351562"/><stop stop-opacity="1" stop-color="rgb(71.238708%, 67.280579%, 93.838501%)" offset="0.0390625"/><stop stop-opacity="1" stop-color="rgb(71.080017%, 66.981506%, 93.795776%)" offset="0.0429688"/><stop stop-opacity="1" stop-color="rgb(70.921326%, 66.682434%, 93.754578%)" offset="0.046875"/><stop stop-opacity="1" stop-color="rgb(70.761108%, 66.383362%, 93.713379%)" offset="0.0507812"/><stop stop-opacity="1" stop-color="rgb(70.602417%, 66.08429%, 93.67218%)" offset="0.0546875"/><stop stop-opacity="1" stop-color="rgb(70.443726%, 65.785217%, 93.629456%)" offset="0.0585938"/><stop stop-opacity="1" stop-color="rgb(70.285034%, 65.486145%, 93.588257%)" offset="0.0625"/><stop stop-opacity="1" stop-color="rgb(70.124817%, 65.185547%, 93.545532%)" offset="0.0664062"/><stop stop-opacity="1" stop-color="rgb(69.966125%, 64.886475%, 93.504333%)" offset="0.0703125"/><stop stop-opacity="1" stop-color="rgb(69.807434%, 64.587402%, 93.463135%)" offset="0.0742188"/><stop stop-opacity="1" stop-color="rgb(69.648743%, 64.28833%, 93.421936%)" offset="0.078125"/><stop stop-opacity="1" stop-color="rgb(69.488525%, 63.989258%, 93.379211%)" offset="0.0820312"/><stop stop-opacity="1" stop-color="rgb(69.329834%, 63.690186%, 93.338013%)" offset="0.0859375"/><stop stop-opacity="1" stop-color="rgb(69.171143%, 63.391113%, 93.295288%)" offset="0.0898438"/><stop stop-opacity="1" stop-color="rgb(69.012451%, 63.092041%, 93.254089%)" offset="0.09375"/><stop stop-opacity="1" stop-color="rgb(68.852234%, 62.791443%, 93.212891%)" offset="0.0976563"/><stop stop-opacity="1" stop-color="rgb(68.693542%, 62.492371%, 93.171692%)" offset="0.101563"/><stop stop-opacity="1" stop-color="rgb(68.534851%, 62.193298%, 93.128967%)" offset="0.105469"/><stop stop-opacity="1" stop-color="rgb(68.37616%, 61.894226%, 93.087769%)" offset="0.109375"/><stop stop-opacity="1" stop-color="rgb(68.215942%, 61.595154%, 93.045044%)" offset="0.113281"/><stop stop-opacity="1" stop-color="rgb(68.057251%, 61.296082%, 93.003845%)" offset="0.117187"/><stop stop-opacity="1" stop-color="rgb(67.89856%, 60.997009%, 92.962646%)" offset="0.121094"/><stop stop-opacity="1" stop-color="rgb(67.739868%, 60.697937%, 92.921448%)" offset="0.125"/><stop stop-opacity="1" stop-color="rgb(67.579651%, 60.398865%, 92.878723%)" offset="0.128906"/><stop stop-opacity="1" stop-color="rgb(67.420959%, 60.099792%, 92.837524%)" offset="0.132812"/><stop stop-opacity="1" stop-color="rgb(67.262268%, 59.799194%, 92.796326%)" offset="0.136719"/><stop stop-opacity="1" stop-color="rgb(67.103577%, 59.500122%, 92.755127%)" offset="0.140625"/><stop stop-opacity="1" stop-color="rgb(66.943359%, 59.20105%, 92.712402%)" offset="0.144531"/><stop stop-opacity="1" stop-color="rgb(66.784668%, 58.901978%, 92.671204%)" offset="0.148438"/><stop stop-opacity="1" stop-color="rgb(66.624451%, 58.602905%, 92.628479%)" offset="0.152344"/><stop stop-opacity="1" stop-color="rgb(66.465759%, 58.303833%, 92.58728%)" offset="0.15625"/><stop stop-opacity="1" stop-color="rgb(66.307068%, 58.004761%, 92.546082%)" offset="0.160156"/><stop stop-opacity="1" stop-color="rgb(66.148376%, 57.705688%, 92.504883%)" offset="0.164062"/><stop stop-opacity="1" stop-color="rgb(65.988159%, 57.40509%, 92.462158%)" offset="0.167969"/><stop stop-opacity="1" stop-color="rgb(65.829468%, 57.106018%, 92.420959%)" offset="0.171875"/><stop stop-opacity="1" stop-color="rgb(65.670776%, 56.806946%, 92.378235%)" offset="0.175781"/><stop stop-opacity="1" stop-color="rgb(65.512085%, 56.507874%, 92.337036%)" offset="0.179688"/><stop stop-opacity="1" stop-color="rgb(65.351868%, 56.208801%, 92.295837%)" offset="0.183594"/><stop stop-opacity="1" stop-color="rgb(65.193176%, 55.909729%, 92.254639%)" offset="0.1875"/><stop stop-opacity="1" stop-color="rgb(65.034485%, 55.610657%, 92.211914%)" offset="0.191406"/><stop stop-opacity="1" stop-color="rgb(64.875793%, 55.311584%, 92.170715%)" offset="0.195312"/><stop stop-opacity="1" stop-color="rgb(64.715576%, 55.012512%, 92.129517%)" offset="0.199219"/><stop stop-opacity="1" stop-color="rgb(64.556885%, 54.71344%, 92.088318%)" offset="0.203125"/><stop stop-opacity="1" stop-color="rgb(64.398193%, 54.412842%, 92.045593%)" offset="0.207031"/><stop stop-opacity="1" stop-color="rgb(64.239502%, 54.11377%, 92.004395%)" offset="0.210938"/><stop stop-opacity="1" stop-color="rgb(64.079285%, 53.814697%, 91.96167%)" offset="0.214844"/><stop stop-opacity="1" stop-color="rgb(63.920593%, 53.515625%, 91.920471%)" offset="0.21875"/><stop stop-opacity="1" stop-color="rgb(63.761902%, 53.216553%, 91.879272%)" offset="0.222656"/><stop stop-opacity="1" stop-color="rgb(63.60321%, 52.91748%, 91.838074%)" offset="0.226562"/><stop stop-opacity="1" stop-color="rgb(63.442993%, 52.618408%, 91.795349%)" offset="0.230469"/><stop stop-opacity="1" stop-color="rgb(63.284302%, 52.319336%, 91.75415%)" offset="0.234375"/><stop stop-opacity="1" stop-color="rgb(63.12561%, 52.018738%, 91.711426%)" offset="0.238281"/><stop stop-opacity="1" stop-color="rgb(62.966919%, 51.719666%, 91.670227%)" offset="0.242188"/><stop stop-opacity="1" stop-color="rgb(62.806702%, 51.420593%, 91.629028%)" offset="0.246094"/><stop stop-opacity="1" stop-color="rgb(62.64801%, 51.121521%, 91.58783%)" offset="0.25"/><stop stop-opacity="1" stop-color="rgb(62.489319%, 50.822449%, 91.545105%)" offset="0.253906"/><stop stop-opacity="1" stop-color="rgb(62.330627%, 50.523376%, 91.503906%)" offset="0.257812"/><stop stop-opacity="1" stop-color="rgb(62.17041%, 50.224304%, 91.461182%)" offset="0.261719"/><stop stop-opacity="1" stop-color="rgb(62.011719%, 49.925232%, 91.419983%)" offset="0.265625"/><stop stop-opacity="1" stop-color="rgb(61.853027%, 49.62616%, 91.378784%)" offset="0.269531"/><stop stop-opacity="1" stop-color="rgb(61.694336%, 49.327087%, 91.337585%)" offset="0.273438"/><stop stop-opacity="1" stop-color="rgb(61.534119%, 49.026489%, 91.294861%)" offset="0.277344"/><stop stop-opacity="1" stop-color="rgb(61.375427%, 48.727417%, 91.253662%)" offset="0.28125"/><stop stop-opacity="1" stop-color="rgb(61.216736%, 48.428345%, 91.212463%)" offset="0.285156"/><stop stop-opacity="1" stop-color="rgb(61.058044%, 48.129272%, 91.171265%)" offset="0.289062"/><stop stop-opacity="1" stop-color="rgb(60.897827%, 47.8302%, 91.12854%)" offset="0.292969"/><stop stop-opacity="1" stop-color="rgb(60.739136%, 47.531128%, 91.087341%)" offset="0.296875"/><stop stop-opacity="1" stop-color="rgb(60.580444%, 47.232056%, 91.044617%)" offset="0.300781"/><stop stop-opacity="1" stop-color="rgb(60.421753%, 46.932983%, 91.003418%)" offset="0.304688"/><stop stop-opacity="1" stop-color="rgb(60.261536%, 46.632385%, 90.962219%)" offset="0.308594"/><stop stop-opacity="1" stop-color="rgb(60.102844%, 46.333313%, 90.921021%)" offset="0.3125"/><stop stop-opacity="1" stop-color="rgb(59.944153%, 46.034241%, 90.878296%)" offset="0.316406"/><stop stop-opacity="1" stop-color="rgb(59.785461%, 45.735168%, 90.837097%)" offset="0.320312"/><stop stop-opacity="1" stop-color="rgb(59.625244%, 45.436096%, 90.794373%)" offset="0.324219"/><stop stop-opacity="1" stop-color="rgb(59.466553%, 45.137024%, 90.753174%)" offset="0.328125"/><stop stop-opacity="1" stop-color="rgb(59.307861%, 44.837952%, 90.711975%)" offset="0.332031"/><stop stop-opacity="1" stop-color="rgb(59.14917%, 44.538879%, 90.670776%)" offset="0.335938"/><stop stop-opacity="1" stop-color="rgb(58.988953%, 44.238281%, 90.628052%)" offset="0.339844"/><stop stop-opacity="1" stop-color="rgb(58.830261%, 43.939209%, 90.586853%)" offset="0.34375"/><stop stop-opacity="1" stop-color="rgb(58.670044%, 43.640137%, 90.545654%)" offset="0.347656"/><stop stop-opacity="1" stop-color="rgb(58.511353%, 43.341064%, 90.504456%)" offset="0.351562"/><stop stop-opacity="1" stop-color="rgb(58.352661%, 43.041992%, 90.461731%)" offset="0.355469"/><stop stop-opacity="1" stop-color="rgb(58.19397%, 42.74292%, 90.420532%)" offset="0.359375"/><stop stop-opacity="1" stop-color="rgb(58.033752%, 42.443848%, 90.377808%)" offset="0.363281"/><stop stop-opacity="1" stop-color="rgb(57.875061%, 42.144775%, 90.336609%)" offset="0.367188"/><stop stop-opacity="1" stop-color="rgb(57.71637%, 41.845703%, 90.29541%)" offset="0.371094"/><stop stop-opacity="1" stop-color="rgb(57.557678%, 41.546631%, 90.254211%)" offset="0.375"/><stop stop-opacity="1" stop-color="rgb(57.397461%, 41.246033%, 90.211487%)" offset="0.378906"/><stop stop-opacity="1" stop-color="rgb(57.23877%, 40.94696%, 90.170288%)" offset="0.382812"/><stop stop-opacity="1" stop-color="rgb(57.080078%, 40.647888%, 90.127563%)" offset="0.386719"/><stop stop-opacity="1" stop-color="rgb(56.921387%, 40.348816%, 90.086365%)" offset="0.390625"/><stop stop-opacity="1" stop-color="rgb(56.761169%, 40.049744%, 90.045166%)" offset="0.394531"/><stop stop-opacity="1" stop-color="rgb(56.602478%, 39.750671%, 90.003967%)" offset="0.398438"/><stop stop-opacity="1" stop-color="rgb(56.443787%, 39.451599%, 89.961243%)" offset="0.402344"/><stop stop-opacity="1" stop-color="rgb(56.285095%, 39.152527%, 89.920044%)" offset="0.40625"/><stop stop-opacity="1" stop-color="rgb(56.124878%, 38.851929%, 89.878845%)" offset="0.410156"/><stop stop-opacity="1" stop-color="rgb(55.966187%, 38.552856%, 89.837646%)" offset="0.414063"/><stop stop-opacity="1" stop-color="rgb(55.807495%, 38.253784%, 89.794922%)" offset="0.417969"/><stop stop-opacity="1" stop-color="rgb(55.648804%, 37.954712%, 89.753723%)" offset="0.421875"/><stop stop-opacity="1" stop-color="rgb(55.488586%, 37.65564%, 89.710999%)" offset="0.425781"/><stop stop-opacity="1" stop-color="rgb(55.329895%, 37.356567%, 89.6698%)" offset="0.429688"/><stop stop-opacity="1" stop-color="rgb(55.171204%, 37.057495%, 89.628601%)" offset="0.433594"/><stop stop-opacity="1" stop-color="rgb(55.012512%, 36.758423%, 89.587402%)" offset="0.4375"/><stop stop-opacity="1" stop-color="rgb(54.852295%, 36.459351%, 89.544678%)" offset="0.441406"/><stop stop-opacity="1" stop-color="rgb(54.693604%, 36.160278%, 89.503479%)" offset="0.445313"/><stop stop-opacity="1" stop-color="rgb(54.534912%, 35.85968%, 89.460754%)" offset="0.449219"/><stop stop-opacity="1" stop-color="rgb(54.376221%, 35.560608%, 89.419556%)" offset="0.453125"/><stop stop-opacity="1" stop-color="rgb(54.216003%, 35.261536%, 89.378357%)" offset="0.457031"/><stop stop-opacity="1" stop-color="rgb(54.057312%, 34.962463%, 89.337158%)" offset="0.460938"/><stop stop-opacity="1" stop-color="rgb(53.898621%, 34.663391%, 89.294434%)" offset="0.464844"/><stop stop-opacity="1" stop-color="rgb(53.739929%, 34.364319%, 89.253235%)" offset="0.46875"/><stop stop-opacity="1" stop-color="rgb(53.579712%, 34.065247%, 89.21051%)" offset="0.472656"/><stop stop-opacity="1" stop-color="rgb(53.421021%, 33.766174%, 89.169312%)" offset="0.476563"/><stop stop-opacity="1" stop-color="rgb(53.262329%, 33.465576%, 89.128113%)" offset="0.480469"/><stop stop-opacity="1" stop-color="rgb(53.103638%, 33.166504%, 89.086914%)" offset="0.484375"/><stop stop-opacity="1" stop-color="rgb(52.94342%, 32.867432%, 89.044189%)" offset="0.488281"/><stop stop-opacity="1" stop-color="rgb(52.784729%, 32.568359%, 89.002991%)" offset="0.492188"/><stop stop-opacity="1" stop-color="rgb(52.626038%, 32.269287%, 88.961792%)" offset="0.496094"/><stop stop-opacity="1" stop-color="rgb(52.467346%, 31.970215%, 88.920593%)" offset="0.5"/><stop stop-opacity="1" stop-color="rgb(52.307129%, 31.671143%, 88.877869%)" offset="0.503906"/><stop stop-opacity="1" stop-color="rgb(52.148438%, 31.37207%, 88.83667%)" offset="0.507813"/><stop stop-opacity="1" stop-color="rgb(51.989746%, 31.072998%, 88.793945%)" offset="0.511719"/><stop stop-opacity="1" stop-color="rgb(51.831055%, 30.773926%, 88.752747%)" offset="0.515625"/><stop stop-opacity="1" stop-color="rgb(51.670837%, 30.473328%, 88.711548%)" offset="0.519531"/><stop stop-opacity="1" stop-color="rgb(51.512146%, 30.174255%, 88.670349%)" offset="0.523438"/><stop stop-opacity="1" stop-color="rgb(51.353455%, 29.875183%, 88.627625%)" offset="0.527344"/><stop stop-opacity="1" stop-color="rgb(51.194763%, 29.576111%, 88.586426%)" offset="0.53125"/><stop stop-opacity="1" stop-color="rgb(51.034546%, 29.277039%, 88.543701%)" offset="0.535156"/><stop stop-opacity="1" stop-color="rgb(50.875854%, 28.977966%, 88.502502%)" offset="0.539063"/><stop stop-opacity="1" stop-color="rgb(50.715637%, 28.678894%, 88.461304%)" offset="0.542969"/><stop stop-opacity="1" stop-color="rgb(50.556946%, 28.379822%, 88.420105%)" offset="0.546875"/><stop stop-opacity="1" stop-color="rgb(50.398254%, 28.079224%, 88.37738%)" offset="0.550781"/><stop stop-opacity="1" stop-color="rgb(50.239563%, 27.780151%, 88.336182%)" offset="0.554688"/><stop stop-opacity="1" stop-color="rgb(50.079346%, 27.481079%, 88.294983%)" offset="0.558594"/><stop stop-opacity="1" stop-color="rgb(49.920654%, 27.182007%, 88.253784%)" offset="0.5625"/><stop stop-opacity="1" stop-color="rgb(49.761963%, 26.882935%, 88.21106%)" offset="0.566406"/><stop stop-opacity="1" stop-color="rgb(49.603271%, 26.583862%, 88.169861%)" offset="0.570313"/><stop stop-opacity="1" stop-color="rgb(49.443054%, 26.28479%, 88.127136%)" offset="0.574219"/><stop stop-opacity="1" stop-color="rgb(49.284363%, 25.985718%, 88.085938%)" offset="0.578125"/><stop stop-opacity="1" stop-color="rgb(49.125671%, 25.68512%, 88.044739%)" offset="0.582031"/><stop stop-opacity="1" stop-color="rgb(48.96698%, 25.386047%, 88.00354%)" offset="0.585938"/><stop stop-opacity="1" stop-color="rgb(48.806763%, 25.086975%, 87.960815%)" offset="0.589844"/><stop stop-opacity="1" stop-color="rgb(48.648071%, 24.787903%, 87.919617%)" offset="0.59375"/><stop stop-opacity="1" stop-color="rgb(48.48938%, 24.488831%, 87.876892%)" offset="0.597656"/><stop stop-opacity="1" stop-color="rgb(48.330688%, 24.189758%, 87.835693%)" offset="0.601563"/><stop stop-opacity="1" stop-color="rgb(48.170471%, 23.890686%, 87.794495%)" offset="0.605469"/><stop stop-opacity="1" stop-color="rgb(48.01178%, 23.591614%, 87.753296%)" offset="0.609375"/><stop stop-opacity="1" stop-color="rgb(47.853088%, 23.292542%, 87.710571%)" offset="0.613281"/><stop stop-opacity="1" stop-color="rgb(47.694397%, 22.993469%, 87.669373%)" offset="0.617188"/><stop stop-opacity="1" stop-color="rgb(47.53418%, 22.692871%, 87.626648%)" offset="0.621094"/><stop stop-opacity="1" stop-color="rgb(47.375488%, 22.393799%, 87.585449%)" offset="0.625"/><stop stop-opacity="1" stop-color="rgb(47.216797%, 22.094727%, 87.54425%)" offset="0.628906"/><stop stop-opacity="1" stop-color="rgb(47.058105%, 21.795654%, 87.503052%)" offset="0.632813"/><stop stop-opacity="1" stop-color="rgb(46.897888%, 21.496582%, 87.460327%)" offset="0.636719"/><stop stop-opacity="1" stop-color="rgb(46.739197%, 21.19751%, 87.419128%)" offset="0.640625"/><stop stop-opacity="1" stop-color="rgb(46.580505%, 20.898438%, 87.37793%)" offset="0.644531"/><stop stop-opacity="1" stop-color="rgb(46.421814%, 20.599365%, 87.336731%)" offset="0.648438"/><stop stop-opacity="1" stop-color="rgb(46.261597%, 20.298767%, 87.294006%)" offset="0.652344"/><stop stop-opacity="1" stop-color="rgb(46.102905%, 19.999695%, 87.252808%)" offset="0.65625"/><stop stop-opacity="1" stop-color="rgb(45.944214%, 19.700623%, 87.210083%)" offset="0.660156"/><stop stop-opacity="1" stop-color="rgb(45.785522%, 19.40155%, 87.168884%)" offset="0.664063"/><stop stop-opacity="1" stop-color="rgb(45.625305%, 19.102478%, 87.127686%)" offset="0.667969"/><stop stop-opacity="1" stop-color="rgb(45.466614%, 18.803406%, 87.086487%)" offset="0.671875"/><stop stop-opacity="1" stop-color="rgb(45.307922%, 18.504333%, 87.043762%)" offset="0.675781"/><stop stop-opacity="1" stop-color="rgb(45.149231%, 18.205261%, 87.002563%)" offset="0.679688"/><stop stop-opacity="1" stop-color="rgb(44.989014%, 17.906189%, 86.959839%)" offset="0.683594"/><stop stop-opacity="1" stop-color="rgb(44.830322%, 17.607117%, 86.91864%)" offset="0.6875"/><stop stop-opacity="1" stop-color="rgb(44.671631%, 17.306519%, 86.877441%)" offset="0.691406"/><stop stop-opacity="1" stop-color="rgb(44.512939%, 17.007446%, 86.836243%)" offset="0.695313"/><stop stop-opacity="1" stop-color="rgb(44.352722%, 16.708374%, 86.793518%)" offset="0.699219"/><stop stop-opacity="1" stop-color="rgb(44.194031%, 16.409302%, 86.752319%)" offset="0.703125"/><stop stop-opacity="1" stop-color="rgb(44.035339%, 16.110229%, 86.711121%)" offset="0.707031"/><stop stop-opacity="1" stop-color="rgb(43.876648%, 15.811157%, 86.669922%)" offset="0.710938"/><stop stop-opacity="1" stop-color="rgb(43.716431%, 15.512085%, 86.627197%)" offset="0.714844"/><stop stop-opacity="1" stop-color="rgb(43.557739%, 15.213013%, 86.585999%)" offset="0.71875"/><stop stop-opacity="1" stop-color="rgb(43.397522%, 14.912415%, 86.543274%)" offset="0.722656"/><stop stop-opacity="1" stop-color="rgb(43.238831%, 14.613342%, 86.502075%)" offset="0.726563"/><stop stop-opacity="1" stop-color="rgb(43.080139%, 14.31427%, 86.460876%)" offset="0.730469"/><stop stop-opacity="1" stop-color="rgb(42.921448%, 14.015198%, 86.419678%)" offset="0.734375"/><stop stop-opacity="1" stop-color="rgb(42.76123%, 13.716125%, 86.376953%)" offset="0.738281"/><stop stop-opacity="1" stop-color="rgb(42.602539%, 13.417053%, 86.335754%)" offset="0.742188"/><stop stop-opacity="1" stop-color="rgb(42.475891%, 13.17749%, 86.302185%)" offset="0.746094"/><stop stop-opacity="1" stop-color="rgb(42.349243%, 12.939453%, 86.268616%)" offset="0.75"/><stop stop-opacity="1" stop-color="rgb(42.349243%, 12.939453%, 86.268616%)" offset="1"/></linearGradient><clipPath id="fe2265a773"><path d="M 257.570312 250.945312 L 1242.445312 250.945312 L 1242.445312 1249.054688 L 257.570312 1249.054688 Z M 257.570312 250.945312 " clip-rule="nonzero"/></clipPath></defs><g clip-path="url(#a8e1ef04b3)"><rect x="-150" fill="url(#6dcba44517)" width="1800" y="-149.999993" height="1799.99992"/></g><g clip-path="url(#fe2265a773)"><path fill="#c0bff2" d="M 497.589844 291.40625 C 387.554688 291.40625 298.03125 380.921875 298.03125 490.960938 L 298.03125 1009.03125 C 298.03125 1119.066406 387.554688 1208.601562 497.589844 1208.601562 L 1002.425781 1208.601562 C 1112.457031 1208.601562 1201.980469 1119.066406 1201.980469 1009.03125 L 1201.980469 490.960938 C 1201.980469 380.921875 1112.457031 291.40625 1002.425781 291.40625 Z M 1002.425781 1249.054688 L 497.589844 1249.054688 C 365.242188 1249.054688 257.570312 1141.378906 257.570312 1009.03125 L 257.570312 490.960938 C 257.570312 358.609375 365.242188 250.945312 497.589844 250.945312 L 1002.425781 250.945312 C 1134.769531 250.945312 1242.445312 358.609375 1242.445312 490.960938 L 1242.445312 1009.03125 C 1242.445312 1141.378906 1134.769531 1249.054688 1002.425781 1249.054688 " fill-opacity="1" fill-rule="nonzero"/></g><path fill="#c0bff2" d="M 891.933594 921.855469 C 864.742188 921.835938 842.628906 899.699219 842.652344 872.511719 C 842.667969 845.355469 864.789062 823.242188 891.964844 823.242188 L 891.988281 816.886719 L 891.988281 823.242188 C 919.167969 823.257812 941.28125 845.394531 941.265625 872.582031 C 941.242188 899.75 919.109375 921.855469 891.933594 921.855469 Z M 891.953125 790.296875 C 846.621094 790.296875 809.722656 827.164062 809.695312 872.496094 C 809.671875 917.847656 846.554688 954.78125 891.90625 954.800781 L 891.953125 954.800781 C 937.292969 954.800781 974.191406 917.917969 974.214844 872.585938 C 974.226562 850.652344 965.671875 830 950.125 814.441406 C 934.582031 798.875 913.933594 790.308594 891.953125 790.296875 Z M 429.644531 433.746094 C 429.660156 406.59375 451.765625 384.480469 478.929688 384.480469 L 478.929688 378.125 L 478.976562 384.480469 C 492.121094 384.480469 504.503906 389.621094 513.816406 398.957031 C 523.132812 408.28125 528.257812 420.652344 528.253906 433.8125 C 528.234375 460.972656 506.125 483.082031 478.914062 483.082031 C 465.769531 483.082031 453.398438 477.941406 444.082031 468.609375 C 434.761719 459.285156 429.636719 446.90625 429.644531 433.746094 Z M 478.953125 516.039062 C 524.28125 516.039062 561.179688 479.164062 561.203125 433.824219 C 561.21875 411.890625 552.664062 391.25 537.121094 375.675781 C 521.574219 360.113281 500.933594 351.535156 478.941406 351.519531 C 433.609375 351.519531 396.714844 388.402344 396.691406 433.742188 C 396.671875 479.089844 433.546875 516.019531 478.898438 516.039062 Z M 515.691406 1081.898438 C 488.5 1081.871094 466.386719 1059.742188 466.40625 1032.550781 C 466.425781 1005.386719 488.535156 983.285156 515.703125 983.285156 L 515.703125 976.925781 L 515.742188 983.285156 C 528.890625 983.285156 541.261719 988.421875 550.582031 997.757812 C 559.894531 1007.078125 565.023438 1019.457031 565.011719 1032.613281 C 565.007812 1059.785156 542.878906 1081.898438 515.691406 1081.898438 Z M 515.714844 950.324219 C 470.382812 950.324219 433.476562 987.207031 433.453125 1032.539062 C 433.449219 1054.472656 441.996094 1075.121094 457.542969 1090.683594 C 473.089844 1106.25 493.730469 1114.828125 515.664062 1114.84375 C 515.667969 1114.84375 515.714844 1114.84375 515.714844 1114.84375 C 561.046875 1114.84375 597.953125 1077.960938 597.96875 1032.628906 C 597.992188 987.277344 561.121094 950.347656 515.714844 950.324219 " fill-opacity="1" fill-rule="nonzero"/><path fill="#c0bff2" d="M 596.21875 469.765625 C 595.191406 469.765625 594.125 469.605469 593.097656 469.269531 C 586.421875 467.09375 580.136719 465.328125 574.363281 463.902344 C 568.929688 462.59375 565.609375 457.117188 566.941406 451.679688 C 568.265625 446.265625 573.664062 442.910156 579.15625 444.257812 C 585.402344 445.765625 592.160156 447.683594 599.355469 450.019531 C 604.667969 451.742188 607.578125 457.457031 605.855469 462.769531 C 604.464844 467.066406 600.492188 469.765625 596.21875 469.765625 Z M 652.28125 493.136719 C 650.722656 493.136719 649.160156 492.785156 647.703125 492.035156 C 641.652344 488.941406 635.6875 486.113281 629.878906 483.5 C 624.777344 481.222656 622.488281 475.230469 624.78125 470.140625 C 627.058594 465.039062 633.070312 462.710938 638.148438 465.042969 C 644.269531 467.777344 650.519531 470.761719 656.886719 474.011719 C 661.859375 476.542969 663.855469 482.648438 661.304688 487.613281 C 659.519531 491.125 655.960938 493.144531 652.28125 493.136719 Z M 704.292969 524.421875 C 702.273438 524.421875 700.238281 523.828125 698.488281 522.578125 C 692.988281 518.71875 687.5 515.058594 682.023438 511.617188 C 677.300781 508.625 675.902344 502.367188 678.886719 497.644531 C 681.917969 492.921875 688.179688 491.59375 692.863281 494.507812 C 698.578125 498.144531 704.347656 501.964844 710.117188 506.019531 C 714.695312 509.226562 715.804688 515.550781 712.578125 520.117188 C 710.601562 522.925781 707.472656 524.421875 704.292969 524.421875 Z M 751.351562 562.753906 C 748.867188 562.753906 746.371094 561.839844 744.421875 560.003906 C 739.554688 555.429688 734.65625 551.023438 729.71875 546.792969 C 725.472656 543.148438 724.984375 536.765625 728.621094 532.515625 C 732.257812 528.289062 738.644531 527.796875 742.890625 531.417969 C 748.070312 535.847656 753.207031 540.457031 758.300781 545.265625 C 762.375 549.097656 762.566406 555.503906 758.726562 559.574219 C 756.730469 561.683594 754.039062 562.753906 751.351562 562.753906 Z M 792.050781 607.703125 C 789.023438 607.703125 786.039062 606.355469 784.046875 603.765625 C 779.972656 598.507812 775.828125 593.425781 771.601562 588.496094 C 767.941406 584.25 768.445312 577.863281 772.675781 574.226562 C 776.925781 570.589844 783.332031 571.074219 786.945312 575.304688 C 791.410156 580.511719 795.792969 585.863281 800.0625 591.40625 C 803.476562 595.828125 802.664062 602.175781 798.238281 605.597656 C 796.394531 607.015625 794.222656 607.703125 792.050781 607.703125 Z M 825.105469 658.539062 C 821.53125 658.539062 818.03125 656.621094 816.214844 653.242188 C 813.054688 647.410156 809.777344 641.691406 806.378906 636.152344 C 803.476562 631.390625 804.988281 625.167969 809.75 622.246094 C 814.472656 619.320312 820.71875 620.824219 823.664062 625.609375 C 827.21875 631.464844 830.691406 637.457031 834.011719 643.601562 C 836.675781 648.527344 834.835938 654.679688 829.929688 657.316406 C 828.390625 658.148438 826.75 658.542969 825.105469 658.539062 Z M 849.46875 714.082031 C 845.28125 714.074219 841.347656 711.445312 839.90625 707.25 C 837.734375 700.96875 835.410156 694.84375 832.976562 688.828125 C 830.863281 683.652344 833.359375 677.738281 838.539062 675.644531 C 843.699219 673.5 849.609375 676.027344 851.71875 681.210938 C 854.308594 687.535156 856.753906 694.023438 859.042969 700.664062 C 860.859375 705.941406 858.050781 711.714844 852.769531 713.527344 C 851.679688 713.90625 850.554688 714.082031 849.46875 714.082031 Z M 864.898438 772.675781 C 860.128906 772.675781 855.878906 769.289062 854.976562 764.425781 C 853.734375 757.84375 852.390625 751.398438 850.910156 745.078125 C 849.628906 739.632812 853 734.183594 858.453125 732.921875 C 863.964844 731.519531 869.339844 735.046875 870.601562 740.457031 C 872.160156 747.066406 873.578125 753.820312 874.859375 760.683594 C 875.886719 766.175781 872.28125 771.472656 866.789062 772.496094 C 866.15625 772.613281 865.527344 772.675781 864.898438 772.675781 " fill-opacity="1" fill-rule="nonzero"/><path fill="#c0bff2" d="M 788.917969 728.773438 L 798.253906 715.523438 L 863.476562 761.570312 L 904.636719 693.148438 L 918.515625 701.515625 L 868.371094 784.839844 L 788.917969 728.773438 " fill-opacity="1" fill-rule="nonzero"/><path fill="#c0bff2" d="M 1085.109375 809.425781 C 1084.273438 809.425781 1083.40625 809.328125 1082.558594 809.089844 C 1077.144531 807.679688 1073.902344 802.148438 1075.328125 796.753906 C 1076.972656 790.441406 1078.5 784.042969 1079.886719 777.503906 C 1081.054688 772.046875 1086.550781 768.6875 1091.910156 769.722656 C 1097.371094 770.890625 1100.863281 776.265625 1099.6875 781.742188 C 1098.222656 788.566406 1096.617188 795.277344 1094.894531 801.859375 C 1093.703125 806.40625 1089.617188 809.429688 1085.109375 809.425781 Z M 1065.820312 866.953125 C 1064.535156 866.953125 1063.214844 866.714844 1061.949219 866.179688 C 1056.789062 864.042969 1054.347656 858.132812 1056.488281 852.957031 C 1058.976562 846.949219 1061.355469 840.820312 1063.589844 834.554688 C 1065.488281 829.28125 1071.261719 826.496094 1076.515625 828.441406 C 1081.773438 830.316406 1084.519531 836.113281 1082.636719 841.367188 C 1080.285156 847.945312 1077.785156 854.390625 1075.171875 860.710938 C 1073.574219 864.609375 1069.796875 866.960938 1065.820312 866.953125 Z M 1038.914062 921.316406 C 1037.171875 921.316406 1035.410156 920.875 1033.8125 919.929688 C 1028.988281 917.121094 1027.351562 910.933594 1030.179688 906.089844 C 1033.46875 900.460938 1036.652344 894.671875 1039.761719 888.78125 C 1042.351562 883.84375 1048.5 881.949219 1053.417969 884.539062 C 1058.359375 887.132812 1060.273438 893.246094 1057.664062 898.203125 C 1054.4375 904.367188 1051.089844 910.386719 1047.648438 916.304688 C 1045.769531 919.523438 1042.390625 921.320312 1038.914062 921.316406 Z M 1004.984375 971.621094 C 1002.8125 971.621094 1000.632812 970.933594 998.792969 969.507812 C 994.367188 966.082031 993.566406 959.714844 996.984375 955.3125 C 1000.984375 950.152344 1004.898438 944.859375 1008.777344 939.40625 C 1012.046875 934.800781 1018.382812 933.753906 1022.867188 936.976562 C 1027.433594 940.207031 1028.515625 946.53125 1025.296875 951.082031 C 1021.257812 956.808594 1017.140625 962.335938 1012.992188 967.695312 C 1010.992188 970.28125 1008.007812 971.621094 1004.984375 971.621094 Z M 964.832031 1017.140625 C 962.246094 1017.140625 959.632812 1016.152344 957.65625 1014.152344 C 953.730469 1010.199219 953.730469 1003.792969 957.707031 999.839844 C 962.296875 995.277344 966.886719 990.515625 971.453125 985.574219 C 975.207031 981.453125 981.652344 981.234375 985.746094 985.011719 C 989.851562 988.792969 990.105469 995.199219 986.308594 999.304688 C 981.539062 1004.480469 976.753906 1009.441406 971.96875 1014.203125 C 969.992188 1016.152344 967.421875 1017.144531 964.832031 1017.140625 Z M 919.152344 1057.117188 C 916.121094 1057.117188 913.125 1055.753906 911.125 1053.164062 C 907.726562 1048.714844 908.558594 1042.371094 912.992188 1038.972656 C 918.070312 1035.085938 923.234375 1030.953125 928.460938 1026.570312 C 932.730469 1022.992188 939.09375 1023.550781 942.730469 1027.839844 C 946.300781 1032.132812 945.726562 1038.515625 941.453125 1042.113281 C 936 1046.660156 930.597656 1050.980469 925.316406 1055.03125 C 923.480469 1056.449219 921.300781 1057.125 919.152344 1057.117188 Z M 868.210938 1090.125 C 864.597656 1090.121094 861.082031 1088.160156 859.261719 1084.722656 C 856.660156 1079.777344 858.558594 1073.65625 863.5 1071.042969 C 868.816406 1068.265625 874.515625 1065.023438 880.566406 1061.328125 C 885.304688 1058.40625 891.53125 1059.914062 894.476562 1064.699219 C 897.378906 1069.46875 895.871094 1075.710938 891.109375 1078.613281 C 884.664062 1082.546875 878.570312 1085.980469 872.941406 1088.960938 C 871.4375 1089.753906 869.816406 1090.125 868.210938 1090.125 " fill-opacity="1" fill-rule="nonzero"/><path fill="#c0bff2" d="M 1143.191406 838.734375 L 1129.179688 846.875 L 1089.164062 777.78125 L 1023.175781 822.746094 L 1014.0625 809.339844 L 1094.441406 754.605469 L 1143.191406 838.734375 " fill-opacity="1" fill-rule="nonzero"/><path fill="#c0bff2" d="M 937.800781 500.238281 L 975.511719 462.566406 C 978.621094 459.460938 980.34375 455.324219 980.34375 450.917969 C 980.34375 446.523438 978.632812 442.390625 975.523438 439.277344 C 969.296875 433.042969 958.457031 433.015625 952.214844 439.261719 L 914.511719 476.921875 L 876.84375 439.210938 C 870.628906 432.984375 859.75 432.996094 853.554688 439.199219 C 850.4375 442.316406 848.722656 446.449219 848.714844 450.84375 C 848.714844 455.25 850.425781 459.390625 853.535156 462.496094 L 891.199219 500.207031 L 853.484375 537.875 C 847.078125 544.308594 847.078125 554.757812 853.484375 561.179688 C 856.601562 564.296875 860.734375 566.007812 865.128906 566.007812 C 869.535156 566.007812 873.675781 564.296875 876.777344 561.195312 L 914.484375 523.519531 L 952.160156 561.238281 C 955.273438 564.359375 959.40625 566.066406 963.8125 566.066406 C 968.199219 566.066406 972.328125 564.359375 975.453125 561.238281 C 981.875 554.832031 981.890625 544.386719 975.464844 537.941406 L 937.800781 500.238281 " fill-opacity="1" fill-rule="nonzero"/><path fill="#c0bff2" d="M 856.882812 1047.957031 C 856.886719 1043.5625 855.171875 1039.414062 852.0625 1036.300781 C 845.84375 1030.082031 835.015625 1030.042969 828.761719 1036.289062 L 791.050781 1073.957031 L 753.394531 1036.25 C 747.164062 1030.015625 736.3125 1029.976562 730.089844 1036.238281 C 726.976562 1039.339844 725.257812 1043.480469 725.257812 1047.878906 C 725.25 1052.277344 726.964844 1056.421875 730.085938 1059.542969 L 767.742188 1097.242188 L 730.035156 1134.917969 C 723.605469 1141.335938 723.601562 1151.785156 730.023438 1158.214844 C 733.144531 1161.332031 737.277344 1163.046875 741.671875 1163.046875 C 746.070312 1163.046875 750.203125 1161.332031 753.324219 1158.214844 L 791.03125 1120.554688 L 828.699219 1158.265625 C 831.8125 1161.378906 835.945312 1163.097656 840.34375 1163.097656 C 844.738281 1163.097656 848.878906 1161.378906 852.003906 1158.277344 C 858.425781 1151.839844 858.425781 1141.382812 852.003906 1134.980469 L 814.339844 1097.265625 L 852.046875 1059.597656 C 855.167969 1056.496094 856.882812 1052.367188 856.882812 1047.957031 " fill-opacity="1" fill-rule="nonzero"/><path fill="#c0bff2" d="M 680.246094 636.453125 C 674.023438 630.226562 663.179688 630.195312 656.941406 636.441406 L 619.234375 674.105469 L 581.5625 636.394531 C 575.34375 630.160156 564.476562 630.160156 558.273438 636.394531 C 555.152344 639.496094 553.433594 643.632812 553.433594 648.039062 C 553.433594 652.429688 555.148438 656.566406 558.257812 659.679688 L 595.925781 697.394531 L 558.210938 735.054688 C 551.785156 741.488281 551.777344 751.945312 558.191406 758.347656 C 561.292969 761.457031 565.429688 763.183594 569.851562 763.183594 C 574.253906 763.183594 578.386719 761.472656 581.5 758.371094 L 619.210938 720.703125 L 656.882812 758.421875 C 659.996094 761.535156 664.128906 763.25 668.523438 763.25 C 672.921875 763.25 677.054688 761.535156 680.167969 758.433594 C 686.597656 752.015625 686.613281 741.5625 680.183594 735.117188 L 642.523438 697.414062 L 680.230469 659.757812 C 686.65625 653.324219 686.664062 642.875 680.246094 636.453125 " fill-opacity="1" fill-rule="nonzero"/></svg>